<svg class="img-fluid" id="outputsvg" xmlns="http://www.w3.org/2000/svg" style="transform: matrix(0.856831, 0, 0, 0.856831, 0, 0); transform-origin: 50% 50%; cursor: move; transition: none 0s ease 0s;" width="2000" height="667" viewBox="0 0 20000 6670"><g id="lonUG6C1zecbgEsxHBYjLk" fill="rgb(255,255,255)" style="transform: none;"><g style="transform: none;"><path id="p1FizZuu0J" d="M16915 6190 c-3 -5 -27 -10 -53 -10 -70 0 -339 -34 -482 -61 -149 -29 -461 -131 -612 -203 -42 -19 -99 -45 -128 -56 -29 -11 -66 -31 -83 -44 -18 -13 -57 -36 -87 -51 -30 -15 -69 -38 -87 -51 -17 -13 -34 -24 -38 -24 -17 0 -292 -199 -351 -255 -20 -19 -40 -35 -45 -35 -4 0 -74 -66 -156 -148 -161 -160 -304 -331 -407 -487 -37 -55 -72 -107 -79 -115 -7 -8 -37 -62 -66 -120 -30 -58 -58 -106 -62 -108 -5 -2 -9 -9 -9 -16 0 -7 -13 -39 -29 -72 -73 -149 -154 -387 -166 -489 -4 -27 -11 -77 -16 -110 -5 -33 -9 -81 -9 -107 0 -26 -4 -50 -10 -53 -6 -4 -10 -67 -10 -155 0 -88 4 -151 10 -155 6 -3 10 -25 10 -48 0 -69 30 -306 52 -407 84 -396 286 -808 550 -1124 100 -120 275 -296 378 -381 25 -20 50 -42 55 -48 6 -7 42 -35 80 -62 39 -27 74 -55 78 -62 4 -7 13 -13 19 -13 6 0 42 -23 80 -50 38 -28 70 -50 73 -50 2 0 24 -13 48 -30 25 -16 50 -30 56 -30 6 0 11 -4 11 -8 0 -4 48 -33 108 -62 59 -30 109 -58 110 -62 2 -5 9 -8 16 -8 7 0 39 -14 70 -30 31 -17 80 -40 109 -51 29 -11 66 -26 82 -34 17 -7 49 -19 73 -27 23 -7 42 -17 42 -21 0 -5 5 -5 10 -2 6 4 16 2 23 -3 20 -16 276 -89 408 -116 397 -81 808 -78 1166 10 208 50 506 167 619 241 28 18 54 33 58 33 9 0 90 54 94 63 2 4 9 7 15 7 7 0 25 14 41 30 16 17 35 30 43 30 7 0 16 7 19 15 4 8 11 15 17 15 7 0 23 11 37 25 14 13 73 71 133 128 59 57 107 108 107 113 0 5 17 28 38 50 48 54 83 100 100 132 7 15 17 29 21 32 4 3 20 26 34 52 14 26 37 64 50 85 14 21 31 55 38 76 7 20 15 37 19 37 23 0 256 560 285 685 1 6 6 21 12 35 16 38 46 166 95 395 5 28 14 57 18 66 20 39 58 408 67 649 7 199 -11 478 -48 745 -7 44 -15 85 -19 90 -4 6 -20 60 -34 120 -30 120 -60 223 -81 270 -7 17 -25 59 -40 95 -31 75 -108 221 -139 265 -12 17 -28 43 -36 58 -8 16 -25 40 -37 53 -13 14 -23 28 -23 32 0 4 -13 22 -30 40 -16 18 -30 37 -30 41 0 7 -188 201 -255 263 -16 15 -36 28 -42 28 -7 0 -13 4 -13 8 0 12 -149 122 -165 122 -7 0 -15 4 -17 8 -7 18 -100 72 -228 135 -201 97 -501 201 -615 213 -27 3 -57 8 -65 11 -8 3 -28 7 -45 8 -16 2 -81 10 -144 19 -63 9 -136 16 -162 16 -26 0 -51 5 -54 10 -4 6 -77 10 -185 10 -108 0 -181 -4 -185 -10z m-485 -1105 c180 -16 209 -20 370 -50 124 -23 294 -70 315 -87 5 -4 19 -8 32 -8 31 0 155 -50 298 -121 163 -80 185 -93 389 -234 52 -36 146 -114 201 -167 22 -21 77 -73 121 -115 70 -67 193 -206 300 -340 79 -98 204 -304 279 -458 129 -265 200 -494 234 -748 14 -98 14 -379 1 -444 -5 -26 -16 -88 -26 -138 -35 -196 -158 -495 -279 -680 -106 -163 -345 -394 -490 -475 -22 -12 -51 -30 -65 -39 -36 -25 -207 -104 -300 -140 -67 -25 -258 -74 -360 -92 -48 -8 -167 -13 -330 -13 -305 -1 -446 10 -595 43 -542 123 -988 337 -1375 659 -69 57 -310 291 -310 301 -1 3 -17 24 -36 46 -19 22 -61 72 -92 110 -31 39 -62 76 -68 83 -7 6 -16 21 -19 32 -3 11 -10 20 -15 20 -4 0 -18 20 -30 44 -12 25 -25 46 -29 48 -19 8 -201 361 -201 391 0 9 -4 19 -10 22 -5 3 -10 13 -10 21 0 8 -9 33 -19 57 -41 89 -86 244 -110 377 -7 36 -18 88 -24 115 -15 70 -14 405 2 480 7 33 17 82 22 109 28 162 153 437 267 592 58 78 229 259 302 320 52 42 205 150 244 171 132 71 300 149 356 165 36 11 83 25 105 31 22 6 42 14 45 18 3 3 43 14 90 24 47 9 103 21 125 26 65 14 181 30 330 43 186 18 166 18 365 1z"></path><path id="p3Lofz5Tg" d="M16695 4856 c-52 -22 -106 -149 -186 -438 -26 -94 -69 -313 -69 -354 0 -72 33 -103 108 -104 58 0 105 19 117 47 107 267 206 699 181 797 -15 61 -80 83 -151 52z"></path><path id="pd9gd0KGy" d="M15303 4822 c-34 -22 -42 -117 -18 -217 20 -88 93 -269 174 -437 39 -80 71 -150 71 -155 0 -17 59 -43 99 -43 98 0 148 52 138 144 -3 28 -31 111 -62 186 -31 74 -75 182 -97 239 -53 139 -115 247 -154 272 -32 19 -126 27 -151 11z"></path><path id="pTP7EmIUi" d="M15993 4632 c-24 -15 -46 -88 -50 -167 -6 -90 20 -392 43 -499 15 -70 29 -90 72 -102 39 -11 110 6 143 34 l32 26 -6 196 c-10 304 -34 448 -82 496 -20 20 -34 24 -82 24 -32 0 -63 -4 -70 -8z"></path><path id="pLFnuJAP1" d="M14850 4524 c-29 -12 -40 -38 -40 -96 0 -39 7 -72 20 -99 23 -44 29 -51 115 -151 33 -39 86 -102 118 -141 125 -157 107 -142 177 -142 56 1 65 4 86 28 35 41 34 125 -4 189 -40 70 -269 355 -309 385 -27 20 -49 28 -91 30 -32 1 -64 0 -72 -3z"></path><path id="plvecnSVX" d="M17475 4354 c-75 -39 -140 -111 -369 -409 -123 -159 -145 -197 -153 -265 -11 -97 31 -140 138 -140 l63 0 56 58 c62 66 260 310 337 418 62 86 99 157 108 207 9 47 -11 124 -36 137 -27 15 -111 12 -144 -6z"></path><path id="p11qkGvM0j" d="M14435 3966 c-28 -20 -32 -121 -7 -161 25 -40 119 -85 247 -119 55 -15 175 -50 267 -77 174 -51 208 -56 254 -39 40 15 53 39 54 92 0 104 9 99 -374 229 -243 83 -265 89 -341 89 -53 0 -88 -5 -100 -14z"></path><path id="pYdPPD7rf" d="M18100 3877 c-71 -30 -173 -95 -340 -221 -74 -56 -181 -135 -238 -175 -56 -40 -107 -81 -112 -91 -16 -30 -12 -152 5 -177 17 -24 71 -43 121 -43 62 0 136 49 607 400 130 97 167 149 167 231 0 80 -19 99 -97 99 -37 0 -78 -9 -113 -23z"></path><path id="pKxOCQCvG" d="M15493 3746 c-34 -25 -41 -111 -14 -162 12 -21 21 -44 21 -51 0 -7 4 -13 8 -13 8 0 69 -123 108 -215 59 -142 60 -264 4 -390 -37 -83 -50 -127 -50 -173 0 -99 20 -118 138 -132 154 -18 199 -31 322 -88 54 -25 140 -90 194 -146 83 -88 132 -163 243 -379 28 -54 48 -62 149 -61 52 1 100 6 106 11 26 19 170 53 227 53 22 0 66 -7 98 -16 32 -9 79 -21 105 -28 26 -6 53 -17 60 -24 6 -6 18 -12 25 -12 7 0 21 -4 31 -10 19 -11 80 -37 132 -56 37 -14 100 -18 137 -8 12 3 27 19 34 35 21 52 4 131 -58 263 -31 67 -60 126 -64 132 -5 6 -21 46 -36 90 -27 78 -27 83 -25 294 l2 215 -24 26 c-13 14 -50 36 -82 48 -114 43 -280 132 -335 179 -111 94 -168 180 -204 307 -58 203 -73 226 -158 233 -41 3 -67 -2 -117 -22 -114 -47 -179 -55 -300 -35 -58 10 -132 27 -165 37 -290 94 -323 103 -405 108 -68 5 -89 3 -107 -10z"></path><path id="p10tqkv0Gn" d="M15025 3320 c-27 -5 -106 -9 -175 -9 -157 -2 -313 -16 -365 -33 -47 -15 -75 -61 -75 -123 0 -61 19 -87 75 -108 44 -17 69 -18 220 -13 315 11 495 24 513 38 34 27 41 44 42 104 0 47 -5 69 -23 95 -39 58 -85 68 -212 49z"></path><path id="pnO2VjS6N" d="M18200 3302 c-41 -16 -111 -46 -155 -67 -44 -21 -110 -50 -148 -66 -37 -15 -74 -34 -81 -42 -29 -28 -46 -78 -46 -132 0 -46 4 -60 25 -80 21 -22 33 -25 92 -25 50 0 79 6 107 20 21 12 60 30 87 40 117 46 304 146 341 181 40 38 40 38 36 104 -2 36 -10 71 -16 77 -8 8 -45 14 -90 15 -64 3 -89 -2 -152 -25z"></path><path id="peZm4jYFU" d="M15020 2736 c-172 -62 -281 -117 -316 -159 -24 -28 -26 -38 -22 -99 2 -37 9 -73 16 -80 9 -9 41 -13 95 -12 78 1 92 5 262 73 99 40 184 77 189 82 6 5 18 9 27 9 10 0 29 14 43 31 22 26 26 40 26 93 0 49 -5 69 -21 90 -19 24 -27 26 -87 25 -55 0 -94 -10 -212 -53z"></path><path id="pDWPMiIIr" d="M17861 2608 c-44 -17 -69 -52 -77 -108 -8 -63 14 -115 58 -134 32 -14 257 -28 659 -43 144 -6 251 5 304 29 48 22 60 124 19 169 -42 46 -168 66 -506 79 -146 5 -301 12 -344 15 -52 3 -91 1 -113 -7z"></path><path id="pHEiB6kZ4" d="M15260 2343 c-361 -224 -391 -255 -378 -395 3 -27 12 -54 19 -59 8 -5 45 -9 82 -9 69 0 171 33 204 66 8 8 18 14 23 14 18 0 258 147 313 192 55 44 69 110 42 189 -21 61 -36 69 -124 68 -76 0 -77 -1 -181 -66z"></path><path id="p5dgpXvZ6" d="M17869 2061 c-26 -26 -29 -36 -29 -90 0 -71 12 -102 48 -123 15 -9 149 -46 297 -83 237 -60 282 -68 370 -69 82 -1 105 2 127 17 50 34 62 134 23 193 -24 38 -103 69 -245 99 -321 67 -420 85 -488 85 -68 0 -76 -2 -103 -29z"></path><path id="pjZZ2k6wl" d="M15859 2045 c-15 -8 -60 -67 -105 -137 -42 -68 -83 -130 -90 -138 -7 -8 -26 -40 -43 -70 -78 -136 -107 -228 -98 -306 7 -65 19 -74 96 -74 59 0 72 4 109 31 48 35 150 183 261 380 68 122 71 129 71 193 0 78 -9 100 -50 121 -36 19 -117 19 -151 0z"></path><path id="p12XAB4HKZ" d="M16274 1708 c-45 -34 -39 -16 -91 -273 -24 -119 -24 -304 0 -357 20 -43 45 -53 115 -45 37 4 52 12 75 39 37 45 65 138 83 283 8 66 19 128 25 137 15 28 10 134 -7 178 -20 51 -38 60 -112 60 -46 0 -66 -5 -88 -22z"></path><path id="p1knyZvtq" d="M17215 1678 c-35 -20 -44 -42 -45 -103 0 -52 7 -76 57 -185 121 -263 155 -322 203 -358 41 -31 49 -34 99 -30 41 4 59 10 73 28 23 28 24 97 2 171 -22 75 -221 476 -240 483 -26 10 -128 6 -149 -6z"></path><path id="pypv1uuoi" d="M16774 1577 c-42 -37 -42 -97 0 -328 46 -257 75 -332 137 -363 40 -20 82 -20 120 -1 70 37 68 136 -12 495 -47 212 -53 220 -156 220 -50 0 -67 -4 -89 -23z"></path><path id="p17pKZl15H" d="M17835 1558 c-36 -20 -44 -42 -45 -109 0 -58 3 -68 28 -91 37 -36 123 -78 159 -78 36 0 95 19 105 34 4 6 8 34 8 62 0 65 -39 146 -84 174 -38 23 -137 28 -171 8z"></path><path id="p14JDYSQwS" d="M3725 5460 c-325 -24 -569 -141 -731 -351 -119 -155 -184 -332 -244 -659 -87 -481 -120 -612 -190 -750 -38 -76 -109 -149 -180 -185 l-52 -27 5 509 c5 528 14 665 57 911 37 207 104 375 170 424 21 15 30 30 30 50 l0 28 -895 0 -895 0 0 -28 c0 -20 9 -35 30 -50 84 -63 156 -281 194 -589 33 -265 37 -501 33 -1728 -4 -1298 -5 -1323 -57 -1542 -32 -135 -95 -241 -164 -278 -30 -16 -36 -25 -36 -51 0 -32 1 -32 78 -49 506 -109 1183 -392 1367 -572 35 -34 59 -51 69 -47 14 5 16 156 18 1451 l3 1446 155 -173 c201 -223 288 -340 355 -475 82 -164 104 -301 69 -427 -19 -68 -76 -138 -135 -169 -32 -16 -39 -25 -39 -49 l0 -30 736 0 735 0 -3 31 c-3 30 -8 33 -108 70 -219 82 -579 276 -807 435 -230 160 -442 344 -748 647 l-220 218 60 -8 c114 -15 283 -8 370 16 240 67 464 249 702 571 96 129 152 218 348 550 317 536 444 702 584 760 28 11 32 17 29 44 -3 30 -6 31 -68 43 -167 30 -453 45 -625 33z"></path><path id="pG5UCyxYy" d="M4580 5385 c0 -17 14 -37 41 -62 151 -137 229 -632 229 -1463 0 -387 -24 -705 -66 -866 -33 -128 -97 -231 -168 -269 -29 -16 -36 -25 -36 -50 0 -30 1 -31 88 -48 298 -61 728 -212 1028 -361 175 -87 282 -155 343 -218 25 -25 51 -44 58 -41 11 4 13 194 13 1017 0 976 8 1392 30 1615 36 360 107 604 200 684 28 24 40 42 40 60 l0 27 -900 0 -900 0 0 -25z"></path><path id="p12w0VXROu" d="M7700 5386 c-5 -14 -116 -348 -246 -743 -237 -718 -396 -1180 -492 -1431 -189 -491 -382 -863 -538 -1031 -41 -45 -54 -66 -54 -90 l0 -31 910 0 910 0 0 29 c0 16 -11 53 -24 82 -86 188 -42 520 153 1149 78 253 283 836 299 852 7 7 73 -207 229 -742 35 -120 52 -196 49 -217 -7 -48 -136 -353 -241 -568 -101 -208 -200 -366 -288 -461 -44 -48 -57 -69 -57 -93 l0 -31 910 0 910 0 0 29 c0 16 -11 53 -24 82 -86 188 -42 520 153 1149 78 253 283 836 299 852 8 8 223 -710 272 -906 56 -228 74 -363 74 -571 0 -205 -9 -263 -61 -372 -29 -63 -107 -151 -157 -178 -30 -16 -36 -25 -36 -52 l0 -33 560 0 560 0 0 33 c0 32 -3 34 -54 50 -151 48 -346 235 -497 477 -73 117 -197 378 -257 540 -28 74 -139 403 -247 730 -108 327 -265 802 -349 1055 l-153 460 -283 0 -283 0 -89 -260 c-49 -143 -159 -476 -245 -740 -147 -454 -334 -1002 -354 -1035 -7 -13 -10 -12 -14 5 -4 11 -156 472 -338 1025 l-333 1005 -282 3 -282 2 -10 -24z"></path><path id="pDcVn1iU5" d="M11670 5382 c0 -20 9 -35 30 -51 46 -33 76 -86 114 -201 67 -203 100 -456 117 -917 16 -420 2 -835 -36 -1093 -29 -197 -94 -335 -184 -390 -33 -20 -41 -31 -41 -55 0 -30 1 -31 86 -48 471 -97 1158 -383 1353 -563 36 -33 72 -59 79 -57 9 4 12 231 12 1091 0 1291 8 1502 66 1817 40 223 106 382 175 422 21 13 29 25 29 45 l0 28 -900 0 -900 0 0 -28z"></path><path id="pmJVDeibk" d="M12371 1982 c-161 -326 -398 -556 -702 -682 l-94 -39 34 -12 c63 -22 231 -108 291 -149 189 -128 322 -283 461 -537 l55 -102 27 55 c118 241 293 452 475 576 70 47 235 133 303 157 l34 12 -91 38 c-306 126 -523 334 -694 663 l-56 107 -43 -87z"></path><path id="pXIsqkX3a" d="M5282 1976 c-173 -338 -422 -572 -737 -691 -57 -22 -59 -24 -35 -33 207 -80 335 -159 469 -286 116 -112 203 -232 297 -410 l52 -99 37 73 c179 356 421 584 755 713 l45 17 -76 33 c-42 19 -111 53 -155 76 -223 120 -402 313 -555 597 -28 52 -51 94 -52 94 -1 0 -21 -38 -45 -84z"></path></g></g><g id="l5m81mka7dPVOLM3dKiEHXJ" fill="rgb(92,225,21)" style="transform: none;"><g style="transform: none;"><path id="p3GGOU4qf" d="M16035 5114 c-162 -15 -257 -27 -335 -44 -30 -7 -66 -14 -80 -16 -14 -1 -36 -6 -50 -9 -14 -3 -36 -8 -50 -11 -13 -3 -27 -8 -30 -12 -3 -4 -23 -13 -45 -19 -22 -6 -69 -20 -105 -31 -56 -16 -224 -94 -356 -165 -39 -21 -192 -129 -244 -171 -73 -61 -244 -242 -302 -320 -114 -155 -239 -430 -267 -592 -5 -27 -15 -76 -22 -109 -17 -76 -18 -469 -2 -540 6 -27 17 -79 24 -115 24 -133 69 -288 110 -377 10 -24 19 -49 19 -57 0 -8 5 -18 10 -21 6 -3 10 -13 10 -22 0 -30 182 -383 201 -391 4 -2 17 -23 29 -48 12 -24 26 -44 30 -44 5 0 12 -9 15 -20 3 -11 12 -26 19 -32 6 -7 37 -44 68 -83 31 -38 73 -88 92 -110 19 -22 35 -43 36 -46 0 -10 241 -244 310 -301 396 -330 866 -551 1415 -667 142 -30 233 -36 550 -36 280 0 350 3 433 20 109 23 267 65 322 86 94 36 265 116 300 140 14 9 43 27 65 39 145 81 384 312 490 475 121 185 244 484 279 680 10 50 21 112 26 138 13 65 13 406 -1 504 -34 254 -105 483 -234 748 -75 154 -200 360 -279 458 -107 134 -230 273 -300 340 -44 42 -99 94 -121 115 -55 53 -149 131 -201 167 -204 141 -226 154 -389 234 -130 64 -267 121 -300 125 -11 1 -30 7 -42 14 -13 7 -23 10 -23 7 0 -3 -9 -1 -21 5 -11 6 -30 14 -42 16 -27 6 -30 7 -87 24 -25 7 -55 12 -67 12 -12 -1 -25 3 -28 8 -4 6 -10 8 -15 5 -5 -3 -40 1 -77 9 -104 22 -205 35 -359 46 -166 12 -196 11 -379 -6z m755 -294 c25 -25 34 -60 26 -112 -3 -24 -6 -50 -7 -58 0 -8 -3 -22 -6 -30 -3 -8 -7 -24 -8 -35 -14 -97 -108 -418 -160 -548 -16 -38 -93 -59 -126 -34 -36 28 -40 52 -24 144 38 205 127 508 178 607 22 41 41 63 62 72 40 17 42 17 65 -6z m-1366 -39 c39 -25 101 -133 154 -272 22 -57 65 -163 95 -236 30 -72 58 -144 61 -160 9 -40 -23 -88 -70 -103 -32 -11 -42 -10 -71 5 -18 10 -33 22 -33 27 0 6 -32 76 -71 156 -82 170 -162 372 -179 455 -25 123 27 181 114 128z m691 -195 c46 -46 70 -181 81 -462 7 -163 7 -165 -16 -189 -34 -37 -86 -48 -121 -28 -33 20 -43 56 -66 243 -29 242 -21 401 24 445 22 23 70 18 98 -9z m-1130 -121 c38 -29 268 -315 307 -383 15 -26 28 -59 28 -74 0 -41 -38 -79 -80 -80 -37 -1 -29 -9 -147 139 -32 39 -85 102 -118 141 -86 100 -92 107 -115 151 -57 113 25 183 125 106z m2605 -135 c19 -10 36 -61 31 -95 -9 -58 -85 -172 -271 -404 -168 -211 -218 -261 -259 -261 -41 0 -86 26 -100 57 -23 51 5 107 145 288 156 204 272 342 308 370 68 52 109 65 146 45z m-2739 -470 c320 -110 351 -124 363 -168 12 -42 -6 -77 -46 -91 -25 -9 -57 -3 -196 39 -92 27 -212 61 -267 76 -189 50 -273 108 -260 179 15 82 77 77 406 -35z m3409 -10 c52 -52 1 -140 -147 -250 -328 -244 -474 -348 -523 -373 -48 -24 -60 -26 -92 -17 -21 6 -44 21 -53 33 -17 24 -20 89 -5 117 5 10 56 51 112 91 57 40 164 119 238 175 167 126 269 191 340 221 68 28 104 29 130 3z m-2473 -172 c70 -22 155 -49 188 -60 33 -10 114 -28 179 -39 139 -23 208 -17 335 33 135 53 159 31 226 -207 36 -127 93 -213 204 -307 55 -47 220 -135 335 -179 102 -39 101 -36 101 -287 0 -211 1 -219 28 -296 15 -44 31 -84 36 -90 18 -24 119 -253 124 -284 13 -69 -38 -108 -106 -82 -44 17 -118 49 -139 61 -10 5 -23 9 -30 9 -6 0 -19 7 -28 15 -9 8 -34 17 -55 21 -22 3 -43 8 -47 11 -4 2 -33 11 -63 19 -66 17 -177 18 -243 3 -74 -16 -126 -32 -138 -41 -7 -5 -41 -10 -77 -11 -69 -2 -94 10 -120 60 -111 216 -160 291 -243 379 -54 56 -141 122 -194 146 -125 58 -174 71 -322 88 -152 18 -169 67 -88 245 60 132 58 300 -4 450 -39 92 -100 215 -108 215 -4 0 -8 6 -8 13 0 6 -7 26 -16 42 -23 41 -19 86 8 109 31 25 102 16 265 -36z m-604 -406 c43 -39 60 -110 34 -142 -30 -37 -47 -41 -214 -51 -390 -22 -434 -23 -488 -2 -63 23 -82 56 -65 109 23 69 76 81 403 93 131 5 242 12 245 16 11 10 64 -4 85 -23z m3228 11 c5 -5 12 -26 16 -47 5 -33 2 -40 -34 -75 -38 -35 -225 -135 -342 -181 -27 -10 -66 -28 -87 -40 -107 -56 -199 14 -148 113 24 45 36 55 111 86 38 16 104 45 148 66 147 69 226 95 278 91 27 -2 53 -8 58 -13z m-3122 -549 c29 -37 27 -85 -5 -123 -14 -17 -33 -31 -43 -31 -9 0 -21 -4 -26 -9 -6 -5 -91 -42 -190 -81 -135 -54 -193 -73 -232 -74 -61 -1 -73 8 -80 61 -7 52 24 88 119 138 96 51 353 143 400 144 28 1 41 -5 57 -25z m2981 -164 c336 -12 446 -27 508 -66 50 -32 47 -99 -6 -124 -67 -30 -172 -34 -473 -17 -162 10 -318 17 -347 17 -65 0 -109 22 -127 62 -32 77 39 155 130 143 17 -3 158 -9 315 -15z m-2771 -199 c10 -6 26 -31 35 -57 30 -88 -1 -121 -262 -275 -45 -27 -87 -49 -92 -49 -5 0 -15 -6 -23 -14 -23 -24 -134 -66 -171 -66 -51 0 -65 8 -72 45 -18 98 38 150 386 363 98 60 156 76 199 53z m2786 -365 c249 -52 306 -67 353 -96 67 -41 74 -126 14 -167 -32 -22 -141 -23 -212 -3 -64 19 -62 18 -95 25 -123 25 -405 100 -427 113 -56 33 -65 107 -17 154 29 30 33 31 97 25 37 -3 166 -26 287 -51z m-2305 9 c37 -19 50 -43 50 -91 0 -42 -92 -212 -216 -400 -87 -133 -138 -176 -199 -172 -92 7 -80 115 36 318 17 30 36 62 43 70 7 8 48 70 90 138 95 149 128 172 196 137z m429 -325 c37 -19 64 -127 42 -168 -5 -9 -15 -57 -21 -107 -12 -90 -14 -102 -25 -163 -23 -126 -86 -204 -152 -187 -56 14 -74 168 -40 340 51 254 46 239 91 273 30 23 75 29 105 12z m925 -36 c22 -9 222 -416 243 -495 16 -62 16 -68 1 -91 -26 -39 -63 -44 -110 -13 -49 32 -82 84 -148 233 -29 64 -68 147 -87 184 -46 94 -43 144 12 176 22 13 65 15 89 6z m-418 -99 c29 -20 38 -46 79 -233 68 -309 69 -369 9 -404 -29 -17 -33 -17 -63 -2 -37 18 -52 39 -81 112 -27 72 -92 428 -85 469 11 61 91 94 141 58z m1060 -35 c34 -22 84 -107 84 -144 0 -30 -11 -41 -49 -54 -29 -10 -40 -9 -85 14 -76 38 -106 70 -106 113 1 80 82 116 156 71z"></path></g></g></svg>